<?xml version="1.0" standalone="no"?>
<!DOCTYPE svg PUBLIC "-//W3C//DTD SVG 20010904//EN"
 "http://www.w3.org/TR/2001/REC-SVG-20010904/DTD/svg10.dtd">
<svg version="1.0" xmlns="http://www.w3.org/2000/svg"
 width="5000.000000pt" height="5000.000000pt" viewBox="0 0 5000.000000 5000.000000"
 preserveAspectRatio="xMidYMid meet">

<g transform="translate(0.000000,5000.000000) scale(0.100000,-0.100000)"
fill="#292929" stroke="none">
<path d="M7616 49883 c-14 -288 -28 -483 -48 -683 l-21 -215 -85 -160 c-129
-241 -430 -853 -584 -1185 -279 -600 -312 -671 -453 -955 -406 -815 -707
-1181 -1073 -1304 -180 -61 -394 -61 -654 -1 -178 41 -215 52 -508 149 -457
153 -697 225 -860 261 -355 77 -556 102 -832 102 -255 -1 -388 -14 -618 -63
-252 -53 -518 -150 -766 -280 -116 -60 -324 -186 -394 -239 -19 -15 -62 -46
-95 -71 -173 -127 -511 -427 -591 -524 l-34 -42 0 -271 0 -272 76 88 c111 126
342 358 469 471 459 408 981 672 1510 765 206 36 477 45 715 25 152 -13 218
-23 380 -55 259 -53 520 -130 935 -279 327 -117 499 -173 640 -210 259 -67
504 -80 690 -36 317 76 600 333 882 801 164 273 316 581 618 1255 211 473 335
743 430 945 101 213 371 757 385 775 4 6 37 66 73 135 l65 125 16 140 c26 235
45 473 51 630 3 83 8 183 10 223 l5 72 -164 0 -164 0 -6 -117z"/>
<path d="M8397 49793 c-7 -217 -24 -438 -57 -731 l-20 -173 -66 -115 c-126
-223 -367 -697 -506 -999 -168 -363 -227 -498 -618 -1425 -105 -250 -224 -525
-263 -610 -359 -787 -633 -1165 -992 -1373 -242 -140 -542 -171 -914 -92 -180
38 -517 151 -866 290 -778 310 -1359 419 -1865 350 -572 -79 -1091 -359 -1598
-862 -209 -208 -419 -457 -575 -680 l-57 -81 2 -336 3 -336 79 128 c550 883
1181 1459 1836 1676 244 81 424 106 705 101 110 -2 211 -5 225 -8 14 -2 52 -8
85 -12 72 -9 308 -58 385 -81 30 -8 69 -19 85 -23 32 -9 261 -85 360 -121 53
-19 569 -222 685 -269 224 -92 567 -196 727 -221 38 -6 79 -13 93 -16 59 -12
292 -11 380 1 175 24 352 94 505 200 39 27 122 101 185 164 182 182 330 401
505 746 155 306 223 465 537 1250 325 813 450 1111 638 1520 166 361 414 842
572 1107 l61 103 18 150 c32 266 59 585 66 788 l6 197 -170 0 -170 0 -6 -207z"/>
<path d="M11687 49843 c-7 -169 -15 -249 -48 -466 -25 -158 -4 -121 -220 -379
-389 -463 -674 -900 -954 -1463 -505 -1017 -808 -2100 -1019 -3650 -21 -154
-70 -553 -106 -860 -100 -856 -151 -1180 -241 -1540 -105 -418 -247 -705 -449
-906 -168 -168 -333 -255 -580 -304 -171 -35 -484 -26 -755 20 -49 9 -106 18
-125 21 -101 16 -543 123 -720 174 -36 10 -157 44 -270 75 -113 31 -216 61
-230 66 -14 5 -149 40 -300 78 -321 81 -596 139 -745 156 -27 4 -57 8 -65 10
-8 2 -46 7 -85 10 -38 4 -81 9 -95 11 -47 9 -495 12 -570 4 -41 -5 -97 -12
-125 -15 -118 -13 -304 -55 -435 -97 -641 -205 -1162 -659 -1715 -1493 -173
-262 -191 -292 -775 -1290 -257 -440 -527 -858 -745 -1150 -121 -163 -290
-365 -305 -365 -6 0 -10 -99 -10 -260 0 -143 4 -260 9 -260 11 0 285 278 363
370 144 169 366 452 470 600 228 325 455 678 690 1074 72 121 168 278 212 350
45 72 106 172 136 221 77 129 282 440 394 599 263 370 562 682 836 873 170
118 291 185 455 251 308 124 538 166 915 166 278 0 474 -20 778 -80 163 -32
584 -134 772 -188 84 -24 227 -64 470 -132 257 -72 661 -174 744 -188 16 -3
52 -10 80 -15 55 -11 61 -12 206 -36 245 -41 513 -51 670 -26 36 6 82 13 102
16 126 20 346 115 455 196 295 220 474 538 607 1074 92 370 145 752 236 1685
17 173 39 398 50 500 11 102 23 210 26 240 25 260 90 738 144 1060 272 1630
768 2895 1541 3925 162 217 346 430 565 654 l209 214 13 61 c22 105 42 286 49
429 l6 137 -255 0 -255 0 -6 -157z"/>
<path d="M13150 49918 c-1 -80 -14 -216 -25 -248 -3 -8 -36 -35 -73 -60 -265
-178 -612 -463 -858 -706 -1135 -1119 -1793 -2641 -2079 -4809 -51 -388 -103
-949 -150 -1620 -74 -1051 -123 -1486 -215 -1885 -50 -216 -97 -366 -170 -536
-208 -485 -540 -758 -1032 -850 -162 -30 -516 -25 -723 10 -16 2 -75 12 -130
21 -55 9 -102 18 -105 20 -3 1 -27 6 -55 9 -101 13 -693 162 -950 238 -38 12
-74 23 -80 24 -5 2 -59 16 -120 32 -60 16 -177 49 -260 72 -82 23 -193 53
-245 66 -52 13 -103 26 -112 29 -171 48 -567 122 -773 146 -118 13 -446 17
-560 7 -515 -48 -942 -262 -1341 -670 -130 -133 -285 -315 -397 -467 -88 -120
-512 -759 -597 -901 -216 -361 -731 -1115 -874 -1281 -17 -20 -58 -71 -91
-114 -78 -102 -334 -395 -490 -561 -176 -186 -546 -512 -621 -546 l-24 -11 0
-224 c0 -177 3 -223 12 -217 102 60 347 241 513 378 280 232 780 755 1086
1137 299 372 422 548 1051 1504 431 657 731 1002 1073 1234 100 68 280 165
365 196 132 49 323 95 469 114 73 10 510 8 561 -3 14 -2 63 -9 110 -15 47 -6
94 -13 105 -15 11 -2 54 -9 95 -16 103 -16 517 -112 675 -156 72 -19 180 -49
240 -66 61 -16 139 -38 175 -48 810 -231 1217 -323 1667 -375 91 -11 384 -8
483 4 675 84 1086 474 1300 1235 81 289 128 564 169 996 20 206 45 546 56 760
3 63 7 144 10 180 3 36 7 115 10 175 8 174 24 472 30 560 3 44 10 152 15 240
6 88 12 187 15 220 3 33 14 168 25 300 122 1431 390 2568 832 3520 358 772
824 1407 1422 1936 21 19 44 39 50 44 32 30 283 230 366 291 203 150 558 377
775 494 44 23 100 54 125 68 51 28 305 164 363 194 20 11 37 22 37 24 0 2
-254 4 -565 4 l-565 0 0 -82z"/>
<path d="M23185 49980 c-301 -42 -694 -68 -1535 -100 -289 -11 -554 -22 -590
-25 -36 -3 -153 -10 -260 -15 -107 -6 -303 -19 -435 -30 -1742 -144 -2998
-493 -4035 -1123 -1243 -755 -2119 -1852 -2592 -3246 -280 -826 -413 -1741
-402 -2771 3 -219 13 -537 19 -620 3 -30 9 -122 15 -205 15 -221 35 -434 71
-745 26 -230 51 -412 173 -1250 86 -588 113 -853 120 -1185 11 -541 -72 -969
-262 -1340 -163 -320 -402 -581 -728 -797 -232 -154 -519 -289 -799 -377 -55
-17 -120 -38 -145 -46 -140 -45 -572 -140 -836 -184 -165 -28 -566 -88 -639
-97 -33 -3 -67 -8 -75 -9 -8 -2 -40 -6 -70 -10 -1424 -181 -2238 -515 -3355
-1374 -172 -132 -504 -399 -525 -421 -3 -3 -108 -93 -235 -200 -126 -107 -345
-294 -485 -415 -140 -122 -320 -277 -400 -345 -80 -69 -147 -127 -150 -130 -3
-3 -48 -41 -100 -85 -52 -44 -97 -82 -100 -85 -12 -14 -356 -294 -455 -371
-480 -374 -836 -582 -1200 -704 -122 -41 -239 -68 -400 -91 -133 -20 -583 -26
-855 -11 -80 4 -201 10 -270 13 -69 3 -147 7 -175 9 -202 14 -777 1 -945 -21
-155 -20 -330 -50 -438 -75 l-92 -22 0 -217 0 -218 88 20 c215 48 381 74 567
86 145 9 648 9 800 -1 66 -4 163 -10 215 -13 52 -3 109 -7 125 -9 87 -11 384
-20 640 -20 314 1 432 12 634 61 367 90 735 287 1230 658 183 138 283 218 571
462 91 76 176 148 189 159 13 11 29 25 35 30 6 6 40 35 76 65 36 30 70 60 76
65 6 6 39 35 74 65 35 30 68 60 74 65 9 8 140 120 306 261 14 12 70 61 125
109 117 103 121 106 245 209 52 43 106 88 120 100 103 87 222 185 390 320 107
86 202 163 212 171 9 7 81 62 160 122 755 576 1348 904 2016 1118 235 74 575
157 822 200 52 9 118 20 145 25 67 13 554 81 890 125 107 14 379 58 615 100
168 30 519 121 700 181 317 107 609 246 850 407 41 28 77 53 80 56 3 3 23 19
45 36 324 238 613 633 754 1030 121 342 166 640 165 1100 -1 453 -31 723 -189
1680 -73 440 -91 563 -144 950 -30 218 -77 683 -98 965 -22 308 -25 1183 -5
1440 67 847 203 1499 452 2160 154 409 395 876 628 1215 217 316 394 528 676
811 392 392 750 665 1246 951 101 58 392 207 495 253 458 206 866 344 1357
459 638 150 1272 240 2088 296 359 24 721 39 1600 65 1243 37 1732 103 2233
299 59 24 107 44 107 47 0 2 -262 4 -582 3 -503 -1 -601 -4 -713 -19z"/>
<path d="M25385 49949 c-170 -142 -481 -311 -725 -394 -285 -98 -575 -151
-1020 -189 -163 -14 -235 -18 -560 -31 -161 -6 -542 -14 -1040 -20 -1557 -22
-2473 -102 -3390 -299 -183 -39 -499 -126 -720 -200 -1414 -467 -2509 -1331
-3185 -2511 -94 -164 -271 -530 -338 -700 -276 -697 -425 -1407 -477 -2280
-12 -189 -15 -863 -6 -1012 3 -49 11 -164 16 -258 33 -541 108 -1091 275
-2010 143 -786 181 -1037 217 -1425 16 -180 16 -722 0 -870 -83 -732 -326
-1274 -772 -1720 -169 -169 -321 -285 -570 -436 -82 -50 -396 -204 -475 -233
-66 -25 -129 -49 -160 -61 -11 -5 -45 -16 -75 -25 -30 -10 -73 -23 -95 -30
-360 -116 -754 -191 -1575 -301 -419 -56 -376 -50 -485 -68 -475 -77 -796
-153 -1123 -262 -632 -212 -1255 -567 -2022 -1153 -94 -72 -472 -372 -480
-381 -3 -3 -41 -35 -85 -70 -72 -58 -613 -516 -625 -529 -3 -4 -36 -33 -75
-66 -61 -53 -112 -97 -149 -130 -6 -5 -49 -44 -96 -85 -46 -41 -98 -87 -115
-102 -62 -55 -86 -76 -226 -198 -78 -69 -166 -145 -194 -170 -93 -82 -420
-355 -515 -429 -14 -11 -45 -36 -70 -57 -172 -141 -522 -385 -675 -469 -295
-163 -536 -246 -875 -299 -153 -25 -603 -31 -780 -12 -19 2 -80 7 -135 11 -55
3 -118 8 -140 10 -92 10 -156 15 -255 20 -58 4 -116 9 -130 11 -106 17 -660
25 -860 12 -167 -12 -359 -42 -527 -83 l-73 -18 0 -230 0 -229 22 7 c33 10
128 33 163 40 245 45 387 58 655 59 197 1 480 -9 543 -19 12 -2 65 -6 117 -10
52 -4 102 -8 110 -10 8 -1 56 -6 105 -9 50 -4 104 -9 120 -11 17 -2 70 -7 119
-10 50 -4 98 -8 107 -10 46 -9 323 -19 489 -18 154 2 380 19 465 37 11 2 49 9
85 16 238 45 519 152 773 294 191 107 346 218 667 475 137 110 186 151 315
262 96 84 558 489 600 528 28 25 90 82 139 126 49 44 94 85 100 90 6 6 72 64
146 130 74 66 140 125 146 130 6 6 44 39 85 75 40 36 96 85 124 110 28 25 65
56 81 70 513 444 911 763 1279 1026 968 694 1719 1007 2785 1164 80 11 199 29
265 40 66 10 147 21 180 25 33 3 119 15 190 26 72 11 177 27 235 35 797 117
1259 236 1715 444 977 444 1586 1218 1759 2234 44 253 51 361 51 736 -1 555
-36 848 -220 1800 -110 572 -133 699 -164 880 -97 566 -153 1057 -181 1600
-11 209 -5 898 10 1095 105 1446 522 2579 1289 3505 116 141 436 464 586 592
861 735 2011 1215 3360 1403 796 110 1487 150 2670 154 1600 4 2075 28 2546
126 412 86 744 237 1047 475 87 68 118 96 237 212 l110 108 -290 -1 -290 -1
-60 -49z"/>
<path d="M30197 49528 l-3 -473 -52 -305 c-51 -300 -67 -396 -98 -575 -65
-369 -148 -741 -219 -975 -166 -548 -331 -807 -597 -939 -367 -181 -885 -138
-1903 159 -354 103 -341 100 -1085 327 -135 41 -283 86 -330 100 -47 14 -158
47 -246 73 -403 122 -958 265 -1358 351 -350 75 -888 161 -1151 184 -38 3 -81
8 -95 10 -106 19 -554 38 -885 38 -766 1 -1351 -68 -1874 -219 -1170 -339
-2095 -1078 -2633 -2104 -108 -206 -233 -511 -307 -747 -104 -338 -189 -784
-217 -1138 -3 -49 -8 -101 -10 -115 -2 -14 -7 -162 -10 -330 -13 -602 35
-1070 186 -1830 47 -238 68 -336 184 -885 244 -1158 315 -1885 250 -2573 -69
-738 -297 -1374 -710 -1979 -372 -546 -988 -1143 -1674 -1624 -36 -25 -90 -63
-120 -84 -124 -87 -396 -268 -565 -377 -299 -191 -400 -255 -1095 -686 -106
-65 -161 -100 -345 -217 -55 -35 -134 -85 -175 -111 -199 -126 -617 -407 -810
-545 -584 -417 -995 -768 -1479 -1263 -174 -178 -234 -243 -675 -730 -155
-172 -192 -211 -296 -320 -277 -289 -635 -630 -820 -782 -19 -16 -37 -31 -40
-34 -21 -24 -428 -355 -775 -630 -231 -184 -442 -353 -470 -375 -84 -71 -341
-262 -494 -369 -855 -597 -1609 -948 -2331 -1085 -98 -18 -342 -50 -460 -60
-116 -10 -830 -6 -905 4 -60 9 -596 10 -705 1 -433 -32 -751 -131 -1040 -323
-661 -438 -1170 -1319 -1606 -2778 -41 -137 -93 -307 -114 -376 l-40 -126 1
-684 0 -684 55 210 c30 116 77 309 105 430 94 416 196 824 239 960 10 33 40
132 65 220 40 135 122 380 195 580 95 264 265 636 383 840 258 448 529 758
838 958 278 181 568 271 999 312 71 6 368 13 850 20 212 3 399 7 415 9 17 2
66 7 110 11 115 9 369 44 445 60 207 45 265 59 360 86 850 242 1721 735 2950
1669 269 204 386 291 631 471 219 159 605 445 624 461 11 9 54 43 96 75 153
117 237 183 250 195 8 8 49 42 92 77 43 35 99 82 125 105 25 22 94 83 152 135
267 238 556 548 1065 1142 238 277 600 652 825 853 271 243 528 449 840 676
256 185 924 625 1229 809 24 14 84 52 135 83 50 31 116 72 146 91 78 48 344
214 555 347 99 62 205 130 235 150 30 21 114 76 185 123 471 308 843 588 1179
887 424 377 763 773 1017 1188 536 874 727 1873 599 3137 -47 462 -117 874
-290 1705 -172 826 -262 1364 -285 1700 -4 52 -9 106 -11 120 -12 68 -16 660
-5 830 50 773 208 1405 497 1982 441 880 1192 1555 2139 1923 439 170 913 273
1455 316 184 14 962 20 1140 9 1083 -70 2023 -273 3525 -760 99 -32 268 -86
375 -120 107 -34 229 -73 270 -87 41 -14 145 -46 230 -73 85 -26 227 -71 315
-98 798 -249 1239 -342 1620 -342 456 0 737 149 931 492 102 180 218 521 294
863 5 22 14 62 20 88 51 225 130 694 236 1387 9 58 25 157 36 220 21 121 25
223 31 843 l2 307 -157 0 -157 0 -4 -472z"/>
<path d="M30936 49948 c-3 -29 -8 -285 -11 -568 -3 -393 -8 -539 -19 -615 -28
-183 -52 -346 -146 -1020 -51 -370 -119 -786 -156 -965 -9 -41 -22 -105 -29
-141 -50 -252 -160 -601 -240 -764 -83 -168 -156 -264 -275 -359 -298 -239
-757 -274 -1470 -110 -145 33 -388 97 -490 129 -25 7 -106 32 -180 55 -164 51
-620 202 -1410 470 -782 265 -1038 346 -1505 481 -890 255 -1583 385 -2335
434 -220 15 -819 21 -970 10 -259 -19 -360 -28 -485 -46 -1246 -179 -2230
-806 -2831 -1804 -422 -702 -633 -1612 -610 -2630 3 -154 8 -291 10 -305 2
-14 7 -72 11 -129 4 -58 8 -112 10 -120 1 -9 6 -47 10 -86 14 -147 56 -430 99
-675 50 -286 63 -354 171 -900 170 -860 254 -1413 280 -1840 4 -58 9 -116 11
-130 9 -54 12 -644 3 -790 -46 -804 -246 -1516 -595 -2126 -107 -188 -278
-445 -363 -547 -10 -12 -49 -60 -87 -107 -133 -167 -345 -392 -529 -563 -134
-124 -375 -330 -460 -392 -22 -16 -42 -32 -45 -36 -5 -7 -203 -154 -240 -179
-12 -8 -60 -44 -107 -78 -169 -127 -600 -411 -1088 -716 -143 -90 -325 -204
-405 -254 -80 -50 -190 -119 -245 -153 -270 -167 -771 -510 -1003 -686 -357
-271 -679 -571 -989 -918 -83 -93 -249 -300 -438 -546 -181 -235 -304 -389
-383 -479 -83 -93 -358 -370 -437 -439 -131 -116 -458 -370 -610 -476 -109
-76 -420 -284 -525 -352 -52 -33 -205 -131 -340 -218 -541 -347 -797 -520
-1129 -762 -319 -234 -622 -453 -731 -529 -58 -41 -157 -111 -220 -156 -149
-105 -530 -362 -691 -465 -126 -81 -507 -313 -513 -313 -2 0 -48 -25 -102 -56
-211 -120 -573 -292 -798 -380 -112 -45 -380 -134 -501 -168 -195 -54 -552
-123 -730 -141 -33 -3 -91 -10 -130 -15 -83 -11 -250 -22 -505 -34 -69 -4
-147 -8 -175 -11 -27 -3 -77 -7 -110 -10 -128 -11 -319 -35 -395 -49 -14 -3
-36 -7 -50 -10 -116 -20 -332 -91 -454 -148 -638 -300 -1107 -1035 -1459
-2284 -45 -158 -130 -489 -148 -574 -5 -25 -16 -74 -24 -110 -95 -417 -192
-965 -295 -1671 -61 -420 -71 -481 -134 -779 -19 -91 -47 -226 -61 -300 -15
-74 -33 -166 -41 -205 -8 -38 -32 -165 -54 -282 l-40 -211 1 -744 1 -743 25
55 c14 30 33 78 43 105 61 168 114 320 134 385 78 252 120 398 142 490 13 58
31 128 39 155 14 47 66 340 80 450 4 28 8 61 10 75 3 14 16 124 30 245 25 219
31 272 80 685 48 403 66 545 115 895 44 315 103 686 130 820 6 28 26 131 46
230 200 1018 480 1795 819 2270 76 106 230 279 314 351 234 204 539 346 866
404 33 5 71 12 85 15 66 13 328 47 540 69 315 34 404 45 475 57 33 5 87 14
120 20 349 57 796 185 1115 319 715 299 1286 650 2570 1579 1270 919 1331 959
2415 1586 575 333 948 565 1190 739 60 43 250 191 265 206 3 3 41 37 85 75
256 224 417 420 725 881 289 433 452 637 719 905 379 378 821 709 1616 1209
1055 664 1357 868 1785 1208 355 282 589 502 870 817 405 454 764 1090 949
1680 136 438 227 976 242 1440 25 789 -41 1421 -282 2709 -127 679 -149 797
-178 971 -29 177 -37 231 -66 450 -68 520 -80 1143 -30 1585 57 501 167 936
335 1332 525 1232 1620 2009 3046 2163 158 17 462 31 629 29 263 -3 440 -8
545 -15 734 -53 1383 -172 2209 -405 178 -50 255 -73 591 -179 140 -43 693
-228 856 -285 150 -53 1108 -391 1189 -420 800 -285 1417 -456 1850 -511 159
-21 468 -16 595 8 307 60 525 221 675 498 147 272 286 861 395 1670 12 88 30
223 40 300 11 77 31 232 45 345 14 113 30 237 35 275 6 39 19 142 31 230 11
88 31 237 44 330 21 153 24 220 29 685 4 283 9 557 13 608 l6 92 -151 0 -151
0 -5 -52z"/>
<path d="M34167 49873 c-4 -71 -14 -184 -22 -253 -33 -277 -72 -874 -81 -1255
-3 -142 -12 -273 -20 -320 -94 -509 -153 -1011 -185 -1565 -21 -349 -17 -1470
6 -1755 3 -33 10 -132 15 -220 10 -149 34 -475 45 -590 2 -27 7 -79 10 -115 3
-36 16 -180 30 -320 14 -140 27 -277 30 -305 11 -119 26 -263 30 -300 34 -283
44 -782 19 -978 -52 -419 -223 -646 -538 -713 -84 -18 -298 -20 -406 -4 -236
34 -606 145 -855 255 -16 7 -86 38 -155 68 -187 82 -198 87 -565 268 -348 171
-410 204 -645 339 -74 42 -155 88 -180 102 -25 14 -173 101 -330 193 -384 226
-632 371 -710 415 -36 20 -119 67 -185 105 -352 199 -1021 545 -1325 684
-1132 520 -2074 827 -3010 980 -768 126 -1404 115 -2008 -35 -199 -49 -323
-93 -497 -178 -585 -286 -994 -785 -1200 -1463 -66 -218 -133 -576 -151 -808
-3 -49 -8 -101 -11 -115 -8 -49 -11 -928 -3 -1070 4 -80 11 -203 14 -275 4
-71 9 -159 11 -195 3 -36 9 -148 15 -250 69 -1276 40 -1912 -121 -2645 -83
-378 -242 -855 -399 -1200 -18 -39 -50 -110 -73 -160 -176 -387 -463 -895
-895 -1585 -247 -394 -309 -494 -374 -600 -541 -882 -768 -1392 -844 -1895
-20 -134 -23 -430 -6 -565 46 -354 172 -721 454 -1320 38 -80 65 -140 157
-347 168 -380 259 -680 268 -892 13 -293 -67 -447 -293 -557 -246 -120 -550
-149 -1494 -142 -823 6 -1224 -5 -1745 -47 -1688 -138 -3470 -573 -4800 -1172
-1061 -478 -2271 -1318 -3816 -2649 -1089 -938 -1784 -1634 -2231 -2234 -630
-845 -947 -1678 -1007 -2645 -8 -134 -6 -623 3 -675 2 -14 7 -68 11 -120 13
-202 76 -665 120 -880 3 -14 11 -59 19 -100 49 -250 118 -537 245 -1009 122
-451 151 -571 196 -811 39 -212 48 -324 42 -527 -5 -164 -9 -203 -36 -305 -57
-225 -163 -402 -342 -573 -325 -310 -877 -527 -1579 -623 -396 -54 -591 -66
-1100 -65 -417 0 -490 4 -890 43 -107 10 -231 21 -275 25 -44 3 -138 14 -210
25 -72 10 -167 22 -212 25 l-83 7 0 -145 0 -146 43 -5 c23 -3 76 -8 117 -11
41 -4 152 -19 245 -35 94 -16 208 -31 255 -35 47 -3 110 -8 140 -10 30 -3 118
-9 195 -15 77 -6 163 -13 190 -15 90 -8 815 -5 1010 4 696 34 1341 156 1800
340 408 163 723 376 909 615 256 329 334 718 246 1232 -36 210 -109 504 -193
779 -14 44 -61 202 -106 350 -44 149 -90 299 -100 335 -48 159 -156 601 -196
806 -47 242 -96 587 -120 859 -11 116 -13 552 -4 675 44 611 179 1119 444
1666 332 687 772 1262 1600 2090 771 771 1622 1525 2520 2230 520 409 1192
859 1740 1164 1249 697 3186 1231 5015 1384 377 32 600 40 1100 40 449 0 651
-6 1000 -29 737 -50 1213 -60 1449 -30 470 59 685 244 682 585 -2 333 -118
655 -593 1660 -164 346 -293 683 -356 930 -143 555 -91 1040 179 1677 52 123
234 479 326 638 102 175 194 331 240 405 22 36 77 126 123 200 46 74 95 154
109 177 14 23 51 82 81 130 30 48 57 92 59 98 2 5 16 28 31 50 35 51 315 519
362 605 20 36 69 126 110 200 90 161 281 535 328 640 417 936 582 1636 631
2680 16 347 4 1141 -25 1615 -16 259 -26 965 -17 1235 25 752 190 1371 481
1808 256 383 630 672 1060 820 754 259 1629 251 2756 -23 811 -197 1648 -517
2604 -994 305 -153 316 -159 760 -399 138 -75 673 -385 865 -502 66 -40 134
-80 150 -90 58 -34 301 -177 450 -265 134 -79 273 -158 490 -277 97 -54 659
-332 835 -413 665 -309 1135 -455 1505 -469 319 -12 555 80 690 268 77 108
114 204 160 413 31 138 25 694 -10 958 -3 17 -11 93 -20 170 -9 77 -18 154
-20 170 -2 17 -11 89 -20 160 -8 72 -17 146 -20 165 -3 19 -12 96 -20 170 -8
74 -17 151 -20 170 -9 66 -44 395 -55 515 -6 66 -12 143 -15 170 -18 206 -25
283 -30 375 -3 58 -8 121 -10 140 -4 35 -12 173 -25 465 -20 451 -9 1159 25
1610 25 332 87 858 125 1050 59 302 69 374 74 580 11 370 43 843 85 1225 16
146 32 302 35 348 l5 82 -143 0 -143 0 -6 -127z"/>
<path d="M34837 49883 c-3 -65 -20 -224 -36 -353 -43 -336 -79 -799 -96 -1235
-5 -128 -14 -200 -45 -355 -141 -708 -201 -1338 -204 -2135 -1 -390 9 -887 19
-919 2 -6 6 -65 10 -131 7 -135 29 -421 45 -565 8 -82 21 -191 46 -415 6 -54
50 -401 64 -500 12 -94 47 -321 100 -670 49 -316 83 -558 95 -665 3 -30 8 -66
10 -80 12 -68 26 -283 29 -435 8 -374 -41 -603 -172 -803 -94 -145 -244 -245
-437 -294 -78 -19 -116 -22 -290 -23 -207 0 -309 11 -510 57 -203 46 -449 123
-700 221 -214 84 -315 128 -660 290 -175 82 -830 409 -940 469 -55 30 -131 72
-170 93 -125 69 -666 388 -985 582 -290 176 -695 412 -925 538 -144 78 -203
110 -380 205 -300 162 -888 441 -1233 586 -956 403 -1863 643 -2622 694 -712
48 -1326 -73 -1795 -354 -140 -83 -247 -168 -369 -291 -393 -397 -612 -986
-681 -1825 -20 -237 -23 -430 -17 -1025 10 -949 7 -1667 -7 -1915 -57 -995
-233 -1776 -591 -2616 -66 -154 -280 -598 -347 -719 -15 -27 -72 -131 -127
-230 -109 -199 -290 -512 -341 -590 -18 -27 -42 -66 -53 -85 -10 -19 -63 -107
-117 -195 -571 -934 -781 -1357 -895 -1805 -48 -185 -62 -291 -67 -505 -4
-152 -1 -230 11 -325 45 -342 155 -685 379 -1180 36 -79 109 -233 232 -485
405 -831 545 -1214 562 -1535 15 -293 -122 -479 -427 -579 -135 -45 -272 -63
-515 -68 -283 -6 -465 7 -1110 83 -1063 124 -1337 144 -1985 144 -509 0 -876
-20 -1335 -71 -1456 -163 -2913 -567 -3998 -1110 -1033 -517 -2156 -1357
-3457 -2588 -229 -216 -869 -856 -1041 -1041 -724 -777 -1123 -1318 -1414
-1915 -300 -617 -441 -1199 -450 -1850 -5 -434 38 -799 160 -1340 66 -295 166
-623 370 -1210 156 -451 187 -544 240 -725 174 -595 188 -982 48 -1360 -196
-531 -747 -959 -1593 -1238 -85 -29 -173 -56 -195 -61 -22 -5 -92 -23 -155
-40 -140 -38 -524 -113 -715 -140 -275 -39 -653 -72 -990 -86 -235 -10 -777
-12 -915 -4 -69 4 -177 10 -240 14 -63 3 -234 26 -380 50 -237 39 -441 65
-507 65 -23 0 -23 0 -23 -140 0 -127 2 -140 18 -140 66 0 287 -28 582 -75 190
-30 372 -57 405 -60 103 -8 756 -5 1004 5 1259 53 2232 260 2984 636 633 316
1033 721 1191 1206 147 448 80 948 -239 1793 -29 77 -79 208 -110 290 -290
768 -438 1243 -508 1635 -3 14 -12 63 -21 110 -21 117 -43 278 -51 380 -3 47
-8 101 -11 120 -9 67 -12 416 -4 535 63 978 443 1864 1204 2810 166 206 496
589 616 716 8 8 69 74 135 145 587 633 1339 1355 1949 1872 799 678 1594 1219
2301 1567 1508 742 3617 1175 5390 1106 626 -25 946 -59 1930 -206 747 -112
906 -128 1240 -129 301 -1 434 15 605 70 404 131 539 414 419 879 -74 288
-199 578 -626 1446 -445 905 -578 1278 -624 1749 -11 115 -8 353 6 450 23 160
61 324 109 472 88 273 272 652 546 1124 10 17 107 179 215 360 109 181 206
343 215 359 10 17 46 80 82 140 35 61 78 135 95 165 16 30 43 78 58 105 105
186 155 278 222 410 91 178 222 449 259 537 14 35 34 81 44 103 17 37 80 193
144 358 78 199 198 598 265 879 116 486 193 1060 217 1607 3 75 8 150 10 166
3 17 7 327 9 690 7 965 14 1566 19 1600 2 17 7 77 10 135 6 90 18 215 31 325
71 587 236 1050 497 1395 53 70 215 237 283 293 87 70 247 168 380 233 595
290 1315 339 2230 153 833 -170 1661 -477 2690 -999 570 -289 928 -492 1920
-1092 560 -338 819 -480 1403 -769 233 -115 424 -209 426 -209 2 0 64 -29 137
-64 447 -213 890 -383 1239 -475 133 -36 329 -76 415 -86 33 -4 69 -9 80 -11
11 -3 83 -7 160 -10 555 -25 887 201 994 676 30 133 39 230 39 420 -1 285 -35
575 -137 1155 -11 61 -27 148 -35 195 -8 47 -28 162 -45 255 -66 374 -148 906
-181 1185 -6 47 -15 119 -20 160 -28 216 -73 725 -85 965 -3 66 -8 152 -10
190 -18 279 -11 984 15 1365 17 254 64 701 90 850 5 30 21 125 36 210 25 150
80 426 108 539 8 31 17 137 20 236 10 315 50 797 91 1100 27 202 41 329 51
458 l6 87 -144 0 -145 0 -6 -117z"/>
<path d="M38077 49873 c-6 -133 -38 -344 -83 -553 -24 -115 -30 -128 -90 -221
-289 -445 -581 -1116 -749 -1722 -224 -806 -307 -1717 -234 -2597 67 -827 261
-1669 580 -2530 49 -130 226 -573 254 -635 8 -16 42 -93 75 -170 34 -77 70
-158 80 -180 10 -22 50 -112 90 -200 40 -88 83 -184 96 -213 13 -29 36 -80 50
-115 14 -34 34 -80 44 -102 55 -122 170 -425 219 -578 42 -131 86 -317 105
-448 20 -137 21 -370 1 -485 -40 -231 -143 -439 -302 -605 -272 -285 -653
-455 -1163 -520 -136 -18 -615 -18 -770 0 -920 102 -1825 393 -3275 1051 -82
38 -305 139 -495 225 -510 232 -1177 525 -1195 525 -10 0 -515 223 -865 382
-206 93 -393 178 -415 188 -22 10 -60 27 -85 38 -1057 474 -1968 713 -2715
713 -353 0 -619 -40 -893 -136 -456 -159 -754 -427 -981 -882 -92 -185 -139
-308 -224 -588 -63 -204 -130 -523 -238 -1125 -117 -654 -136 -749 -211 -1045
-137 -544 -335 -998 -592 -1357 -23 -31 -48 -66 -56 -78 -32 -47 -228 -294
-275 -346 -5 -6 -23 -26 -39 -45 -61 -70 -161 -184 -172 -194 -5 -5 -50 -55
-100 -110 -49 -55 -91 -102 -94 -105 -91 -91 -404 -466 -530 -634 -261 -351
-454 -713 -577 -1084 -152 -462 -193 -984 -117 -1512 92 -641 388 -1368 909
-2235 125 -207 186 -305 471 -755 574 -906 706 -1206 721 -1635 4 -126 2 -183
-12 -265 -47 -281 -179 -529 -394 -740 -129 -126 -255 -214 -431 -303 -619
-312 -1411 -322 -2705 -36 -263 59 -648 156 -1080 274 -1175 320 -1581 419
-2125 519 -705 129 -1216 173 -1899 163 -522 -7 -847 -35 -1316 -113 -901
-150 -1673 -413 -2403 -821 -1106 -617 -2106 -1581 -2809 -2708 -376 -602
-654 -1242 -802 -1845 -95 -385 -129 -639 -138 -1010 -16 -690 92 -1172 401
-1790 185 -369 368 -661 735 -1167 430 -593 494 -687 616 -908 239 -432 305
-787 214 -1159 -122 -503 -616 -1059 -1384 -1560 -49 -32 -101 -66 -115 -76
-219 -149 -814 -471 -1215 -658 -205 -95 -454 -207 -630 -284 -38 -16 -85 -37
-103 -45 -18 -8 -70 -30 -115 -48 -45 -19 -131 -55 -192 -80 -60 -26 -216 -89
-345 -142 -604 -244 -969 -397 -1310 -546 -304 -133 -803 -389 -1040 -534
-258 -158 -546 -360 -795 -558 -201 -159 -591 -491 -752 -639 l-53 -49 -278 6
c-360 8 -760 37 -1342 97 -102 10 -238 22 -302 26 l-118 7 0 -250 0 -249 163
-12 c89 -6 266 -20 392 -31 512 -44 883 -66 1295 -76 l245 -6 156 138 c85 76
243 217 350 313 701 633 1064 914 1554 1207 241 143 601 331 875 456 208 95
704 311 860 374 74 30 153 63 175 73 22 10 110 47 195 83 85 36 214 90 285
120 156 66 515 223 605 265 36 16 115 52 176 80 855 391 1546 790 2069 1195
72 56 132 103 135 106 3 4 37 33 75 66 333 283 609 613 752 900 131 261 176
437 177 690 1 216 -32 377 -120 597 -112 281 -284 547 -729 1128 -482 630
-704 967 -908 1380 -276 561 -383 1038 -372 1665 23 1252 614 2595 1664 3780
116 131 412 433 551 561 138 127 402 345 574 473 1151 858 2385 1294 3991
1412 212 16 876 16 1090 1 926 -67 1714 -223 3215 -637 1221 -337 1915 -482
2519 -526 231 -17 646 -7 818 20 601 92 1084 354 1382 750 216 288 311 587
298 936 -9 229 -45 388 -144 635 -85 213 -189 401 -448 810 -54 85 -113 180
-132 210 -18 30 -79 125 -134 210 -738 1133 -1070 1834 -1213 2560 -61 309
-77 679 -42 965 53 430 210 862 455 1254 90 143 281 404 356 486 6 7 24 29 40
50 17 21 52 64 79 94 27 31 62 72 79 91 39 45 105 118 181 201 122 132 235
256 321 354 48 55 102 116 119 135 40 45 201 249 253 320 273 377 461 756 617
1245 99 310 188 690 320 1373 172 884 311 1325 539 1707 150 252 384 477 627
604 552 286 1263 323 2160 110 495 -118 1004 -303 1800 -654 416 -184 676
-295 991 -425 421 -174 739 -311 1134 -490 1008 -457 1603 -708 2065 -872 758
-269 1245 -390 1870 -464 184 -22 655 -25 810 -6 279 35 479 85 685 169 635
259 984 734 989 1348 4 479 -143 922 -673 2029 -39 82 -71 150 -71 152 0 1
-18 42 -41 91 -68 146 -102 223 -164 368 -51 118 -196 481 -220 549 -8 22 -35
100 -60 171 -26 72 -56 159 -67 195 -11 36 -28 90 -38 120 -10 30 -28 89 -40
130 -12 41 -25 86 -30 100 -21 60 -97 355 -145 565 -34 147 -90 463 -115 650
-51 372 -71 676 -71 1069 0 663 75 1237 242 1846 197 718 561 1477 960 2000
l88 115 25 145 c28 161 46 313 46 390 l0 50 -213 0 -214 0 -6 -127z"/>
<path d="M39183 49876 l-10 -125 -145 -168 c-280 -326 -375 -448 -515 -658
-347 -521 -584 -1023 -758 -1607 -110 -368 -178 -716 -226 -1158 -26 -240 -37
-822 -20 -1095 35 -566 138 -1144 306 -1725 83 -287 232 -709 346 -977 70
-166 179 -414 219 -498 100 -211 160 -335 310 -640 451 -918 582 -1260 656
-1720 25 -152 25 -452 0 -590 -83 -465 -335 -833 -760 -1113 -144 -95 -458
-238 -596 -271 -19 -5 -78 -20 -130 -35 -240 -64 -554 -97 -870 -91 -211 5
-228 6 -465 31 -646 70 -1393 275 -2315 632 -310 121 -697 284 -1295 547 -964
425 -1195 522 -1830 770 -116 45 -313 126 -690 283 -955 396 -1466 553 -2065
634 -222 30 -661 32 -844 5 -346 -52 -599 -148 -841 -320 -112 -79 -281 -244
-367 -357 -248 -329 -414 -767 -612 -1620 -181 -774 -228 -962 -303 -1210
-168 -557 -352 -967 -622 -1385 -43 -67 -237 -335 -250 -345 -4 -3 -22 -25
-41 -50 -19 -25 -37 -47 -40 -50 -3 -3 -16 -18 -29 -35 -12 -16 -37 -46 -54
-65 -18 -20 -68 -76 -112 -125 -44 -50 -91 -102 -105 -116 -14 -15 -59 -64
-100 -110 -41 -45 -95 -104 -120 -130 -25 -26 -60 -64 -79 -85 -35 -41 -192
-215 -201 -224 -3 -3 -17 -21 -32 -40 -15 -19 -41 -51 -58 -70 -56 -62 -255
-332 -317 -430 -218 -344 -353 -685 -409 -1035 -22 -138 -30 -482 -14 -631 46
-458 181 -888 445 -1419 190 -384 335 -629 733 -1245 91 -140 179 -277 197
-305 18 -27 70 -108 117 -180 340 -523 526 -946 578 -1315 16 -108 16 -341 1
-447 -70 -491 -365 -932 -831 -1246 -347 -233 -765 -374 -1230 -416 -146 -14
-548 -14 -705 -1 -606 51 -1267 187 -2316 476 -810 223 -1244 334 -1664 428
-720 161 -1241 240 -1822 276 -217 14 -819 14 -1022 0 -934 -61 -1755 -246
-2506 -565 -169 -71 -554 -264 -710 -356 -624 -365 -1139 -779 -1638 -1314
-446 -479 -807 -996 -1086 -1555 -276 -554 -437 -1075 -508 -1640 -28 -225
-25 -720 5 -929 73 -494 201 -850 482 -1336 72 -126 276 -437 345 -527 11 -14
29 -38 40 -54 38 -53 269 -350 319 -410 28 -33 67 -80 86 -104 19 -24 72 -89
118 -144 97 -117 78 -94 217 -270 61 -77 124 -159 140 -182 17 -23 61 -86 99
-140 223 -314 365 -632 417 -934 18 -109 16 -375 -4 -486 -48 -257 -160 -527
-319 -764 -220 -327 -463 -586 -863 -919 -131 -108 -428 -324 -625 -452 -377
-246 -743 -452 -1248 -702 -300 -149 -404 -198 -672 -320 -30 -13 -85 -39
-123 -56 -37 -17 -69 -31 -72 -31 -2 0 -43 -18 -92 -41 -48 -23 -191 -86 -318
-141 -126 -55 -300 -131 -385 -168 -432 -188 -753 -336 -1032 -475 -750 -376
-1207 -702 -1973 -1410 -312 -288 -409 -376 -630 -574 -33 -30 -76 -68 -95
-85 -65 -59 -284 -242 -404 -339 l-119 -95 -251 4 c-463 8 -1202 46 -1646 84
-63 5 -136 10 -162 10 l-48 0 0 -249 0 -249 62 -6 c77 -7 485 -31 868 -51 157
-8 474 -19 704 -25 l418 -10 52 37 c396 285 879 685 1261 1043 148 139 566
529 625 584 36 33 90 83 120 111 168 156 446 384 635 521 486 352 910 579
1905 1024 398 178 881 396 985 445 50 23 146 68 215 100 69 33 258 126 420
207 766 383 1368 754 1860 1147 80 63 147 118 150 121 3 3 55 49 115 102 222
194 504 499 651 703 295 410 454 839 454 1228 0 371 -125 733 -390 1127 -87
129 -261 357 -366 480 -12 14 -68 79 -124 145 -137 161 -193 226 -205 239 -28
29 -322 385 -401 486 -406 517 -694 1041 -829 1507 -128 439 -154 1012 -69
1528 166 1011 722 2038 1574 2908 548 560 1117 979 1785 1317 809 408 1695
645 2725 726 265 21 925 25 1170 6 933 -71 1709 -227 3260 -655 936 -259 1331
-354 1840 -441 694 -120 1265 -133 1725 -41 529 106 982 342 1335 695 269 268
445 566 529 892 75 289 68 617 -19 943 -70 262 -262 656 -496 1022 -83 129
-189 292 -310 478 -57 88 -154 239 -216 335 -61 96 -121 191 -133 210 -119
186 -290 489 -404 719 -297 593 -438 1138 -418 1616 22 504 194 941 558 1422
74 98 191 240 261 318 14 17 36 41 48 55 11 13 44 49 73 80 45 48 185 201 272
295 15 17 68 74 119 129 50 54 102 112 116 129 14 17 45 54 70 82 114 128 316
394 422 555 290 443 514 938 698 1545 71 237 122 422 255 940 104 404 153 575
224 788 173 509 340 802 610 1067 310 304 690 458 1202 488 536 32 1157 -82
1884 -345 190 -69 560 -210 885 -338 107 -42 281 -108 385 -147 391 -143 770
-297 1290 -520 1282 -552 1601 -686 1955 -818 1019 -382 1767 -568 2516 -625
131 -10 519 -7 644 5 395 37 734 128 1055 285 248 121 431 251 610 436 153
157 239 280 329 469 224 472 228 1006 10 1657 -103 308 -227 583 -593 1308
-146 292 -295 591 -330 665 -448 950 -678 1679 -810 2565 -62 417 -82 1031
-47 1455 95 1162 488 2178 1190 3080 49 63 121 151 160 195 107 121 361 401
441 485 39 41 100 105 135 143 l63 67 -285 0 -284 0 -11 -124z"/>
<path d="M47200 49964 c-681 -284 -1164 -552 -1670 -927 -310 -231 -672 -564
-892 -822 -393 -463 -702 -1019 -923 -1665 -40 -118 -148 -463 -205 -660 -357
-1214 -523 -1554 -1363 -2790 -94 -139 -284 -431 -352 -540 -32 -52 -68 -111
-80 -130 -28 -43 -185 -310 -185 -314 0 -2 -32 -61 -70 -131 -392 -718 -631
-1460 -760 -2360 -40 -280 -71 -554 -120 -1065 -67 -697 -85 -849 -141 -1200
-42 -259 -115 -590 -166 -755 -36 -115 -93 -284 -117 -345 -65 -171 -201 -452
-267 -555 -18 -27 -44 -68 -58 -90 -109 -169 -323 -421 -457 -540 -43 -38 -81
-72 -84 -75 -3 -3 -27 -24 -55 -45 -27 -22 -52 -43 -55 -46 -13 -15 -236 -162
-320 -211 -414 -241 -1042 -418 -1678 -472 -316 -27 -832 -19 -1192 19 -810
86 -1534 254 -3265 755 -1467 425 -2114 554 -2895 578 -818 25 -1297 -105
-1636 -442 -151 -151 -242 -298 -307 -501 -52 -163 -69 -274 -74 -487 -15
-564 149 -1093 644 -2083 485 -969 730 -1826 780 -2730 14 -250 8 -716 -10
-857 -55 -412 -171 -783 -372 -1186 -273 -547 -630 -1028 -1149 -1548 -187
-186 -280 -272 -496 -458 -276 -237 -790 -593 -1120 -776 -52 -29 -117 -65
-145 -80 -61 -34 -413 -210 -419 -210 -2 0 -37 -15 -78 -34 -408 -188 -917
-347 -1370 -426 -726 -126 -1415 -81 -2442 161 -499 117 -756 191 -1996 569
-1007 307 -1530 418 -2175 460 -1551 100 -2849 -475 -3471 -1538 -119 -203
-216 -467 -259 -702 -23 -125 -31 -439 -16 -568 37 -300 134 -590 301 -896 93
-171 94 -172 462 -716 194 -287 258 -394 343 -573 76 -161 99 -225 130 -364
61 -268 12 -515 -142 -722 -61 -83 -251 -280 -323 -335 -25 -19 -56 -45 -70
-58 -22 -20 -99 -85 -153 -128 -11 -8 -24 -20 -31 -25 -6 -6 -38 -33 -71 -60
-33 -27 -78 -65 -100 -85 -22 -19 -69 -60 -105 -90 -249 -213 -503 -476 -694
-719 -440 -561 -685 -1146 -776 -1853 -31 -246 -50 -523 -65 -943 -34 -976
-103 -1542 -271 -2210 -152 -605 -412 -1331 -685 -1914 -27 -57 -49 -105 -49
-108 0 -9 -288 -579 -319 -631 -17 -29 -31 -55 -31 -57 0 -7 -232 -411 -290
-505 -29 -47 -75 -121 -102 -165 -231 -378 -561 -827 -825 -1124 -617 -694
-1267 -1178 -2198 -1636 -734 -361 -1404 -622 -3080 -1200 -750 -259 -1096
-381 -1440 -510 -1126 -421 -1962 -829 -2578 -1258 l-128 -89 -215 7 -214 8 0
-262 0 -261 160 0 160 0 43 38 c370 329 886 663 1482 959 419 207 1037 472
1487 637 51 19 149 55 218 81 281 104 977 349 1525 535 1102 374 2074 754
2670 1044 1080 525 1817 1093 2494 1924 565 693 1183 1752 1637 2809 177 412
385 978 479 1303 134 463 202 741 255 1045 42 233 70 414 80 505 5 52 12 106
15 120 8 41 43 452 55 630 12 191 19 298 25 390 3 36 7 108 10 160 11 173 36
433 56 575 119 848 444 1467 1084 2065 114 106 351 299 425 345 25 15 47 31
50 34 3 4 21 18 40 31 19 13 41 30 48 37 7 7 34 25 60 40 26 15 101 64 168
109 67 45 125 83 131 85 16 7 190 130 266 190 221 172 335 333 379 533 59 273
2 561 -187 941 -120 242 -253 449 -536 835 -355 485 -490 706 -600 982 -101
254 -144 451 -152 693 -18 567 214 1092 689 1557 701 686 1830 998 3084 852
558 -64 1060 -191 1989 -500 765 -254 1207 -394 1607 -509 350 -100 812 -214
1014 -250 155 -27 325 -54 380 -60 60 -6 186 -20 265 -30 28 -3 165 -8 305
-10 436 -7 852 45 1300 165 215 58 542 172 715 250 22 10 87 39 144 64 174 79
433 214 596 313 11 7 27 15 35 19 76 37 469 304 675 459 950 718 1754 1629
2210 2508 257 496 399 944 450 1423 14 129 22 706 11 774 -2 14 -7 77 -11 140
-42 761 -217 1485 -560 2310 -88 213 -131 312 -257 595 -183 409 -258 607
-333 870 -40 140 -81 359 -94 495 -10 107 -5 319 10 425 46 329 219 611 484
787 231 152 510 240 895 279 188 20 698 17 890 -4 352 -40 674 -95 1050 -182
30 -7 98 -22 150 -34 52 -12 163 -39 245 -61 83 -21 195 -50 250 -65 103 -26
343 -93 615 -170 1969 -560 2821 -739 3785 -796 184 -11 750 -7 830 5 17 3 84
10 150 16 128 12 130 12 245 30 520 79 1018 234 1335 413 263 149 443 284 645
487 157 156 248 266 360 435 40 61 81 123 92 138 44 64 180 341 231 472 56
144 119 328 144 425 20 79 92 388 98 419 17 101 45 272 49 301 30 213 65 529
81 740 3 41 9 131 15 200 5 69 12 166 15 215 3 50 8 113 10 140 3 28 7 86 10
130 3 44 8 107 10 140 3 33 10 121 15 195 6 74 15 171 20 215 5 44 12 112 15
150 12 130 84 619 110 740 14 66 33 154 41 195 23 116 81 332 125 467 21 67
39 128 39 135 1 7 9 31 20 53 11 22 19 45 20 50 0 11 65 189 80 220 5 11 20
49 33 85 14 36 39 95 56 133 17 37 45 97 62 135 52 116 190 386 260 509 11 18
28 50 40 71 12 20 44 75 73 122 28 47 56 93 61 102 26 46 152 249 185 298 585
880 761 1149 862 1320 370 624 549 1050 823 1955 83 275 218 682 283 851 211
551 494 1032 846 1439 85 98 374 387 476 476 656 572 1536 1055 2460 1349 107
34 206 66 220 70 14 5 -174 9 -425 9 l-450 0 -85 -35z"/>
<path d="M49083 49993 c169 -2 445 -2 615 0 169 1 30 2 -308 2 -338 0 -477 -1
-307 -2z"/>
<path d="M48020 49521 c-829 -296 -1572 -726 -2134 -1237 -340 -309 -551 -564
-838 -1015 -97 -151 -245 -458 -357 -739 -110 -275 -136 -349 -321 -915 -291
-889 -454 -1266 -827 -1910 -102 -176 -241 -391 -588 -911 -305 -457 -470
-711 -586 -907 -84 -141 -89 -150 -133 -232 -21 -38 -42 -74 -46 -80 -20 -26
-193 -376 -248 -502 -120 -274 -230 -574 -292 -798 -12 -44 -31 -111 -41 -148
-75 -261 -160 -813 -188 -1217 -17 -240 -20 -292 -26 -475 -3 -93 -8 -219 -10
-280 -2 -60 -7 -207 -10 -325 -3 -118 -7 -242 -10 -275 -2 -33 -7 -123 -11
-200 -3 -77 -7 -151 -9 -165 -2 -14 -7 -61 -10 -105 -16 -206 -62 -548 -90
-670 -7 -33 -16 -76 -19 -95 -28 -178 -155 -576 -246 -775 -391 -853 -1010
-1410 -1880 -1691 -453 -147 -874 -224 -1430 -264 -122 -8 -815 -6 -875 4 -16
2 -75 7 -130 11 -158 9 -523 52 -765 90 -671 104 -1385 270 -2667 621 -90 24
-236 64 -325 88 -747 204 -1353 339 -1813 402 -60 8 -121 17 -135 19 -14 2
-61 6 -105 10 -44 3 -96 8 -115 10 -187 21 -555 11 -765 -20 -175 -26 -392
-89 -532 -155 -317 -151 -504 -390 -570 -729 -24 -126 -21 -372 5 -522 53
-296 128 -535 384 -1224 356 -960 505 -1611 563 -2445 18 -271 25 -712 14
-905 -41 -722 -325 -1479 -850 -2265 -708 -1060 -1817 -2122 -2969 -2842
-1106 -691 -2104 -978 -3055 -878 -260 28 -304 35 -595 105 -229 55 -403 115
-990 340 -129 50 -243 95 -265 105 -11 5 -130 52 -265 105 -135 53 -357 141
-495 195 -963 379 -1184 460 -1562 569 -565 163 -1018 233 -1503 233 -447 0
-797 -53 -1187 -181 -785 -257 -1387 -832 -1568 -1496 -39 -144 -56 -273 -55
-433 0 -295 65 -552 214 -852 123 -245 253 -442 626 -945 540 -729 780 -1212
886 -1785 22 -120 25 -416 5 -505 -43 -193 -98 -301 -209 -411 -47 -46 -88
-82 -90 -79 -3 2 -17 -6 -32 -19 -29 -24 -246 -134 -277 -141 -10 -2 -43 -15
-73 -29 -30 -14 -59 -26 -65 -26 -5 0 -80 -28 -165 -61 -85 -34 -175 -69 -200
-78 -62 -23 -344 -163 -348 -173 -2 -4 -8 -8 -13 -8 -6 0 -35 -16 -65 -35 -30
-19 -57 -35 -60 -35 -10 0 -129 -83 -246 -172 -105 -80 -348 -307 -424 -398
-322 -381 -492 -750 -603 -1305 -26 -132 -63 -417 -96 -735 -2 -25 -9 -88 -14
-140 -6 -52 -13 -124 -16 -160 -20 -215 -77 -662 -105 -825 -116 -674 -228
-1121 -435 -1740 -51 -154 -108 -318 -125 -365 -18 -47 -35 -96 -40 -110 -8
-25 -173 -448 -189 -485 -24 -54 -42 -97 -76 -180 -21 -49 -50 -118 -66 -153
-16 -34 -29 -64 -29 -67 0 -2 -18 -43 -41 -92 -23 -48 -52 -113 -66 -143 -124
-270 -399 -808 -568 -1110 -23 -41 -53 -95 -67 -120 -280 -503 -660 -1064
-962 -1420 -456 -539 -896 -932 -1461 -1305 -165 -109 -505 -315 -520 -315 -2
0 -28 -14 -57 -31 -85 -51 -529 -271 -703 -349 -661 -296 -1374 -563 -2875
-1075 -336 -115 -484 -166 -590 -205 -58 -22 -186 -68 -285 -104 -99 -35 -252
-92 -340 -126 -88 -34 -182 -70 -210 -80 -160 -58 -642 -262 -916 -386 -263
-120 -676 -339 -949 -505 -497 -302 -961 -699 -1265 -1082 l-100 -126 -87 0
-88 -1 0 -450 0 -450 34 0 c31 0 35 4 56 53 70 165 216 428 318 577 202 291
480 596 747 818 669 558 1571 1017 3040 1549 231 84 710 250 1185 413 526 180
827 285 1105 385 1653 595 2632 1117 3455 1843 779 686 1386 1546 2075 2937
723 1461 1149 2692 1394 4030 44 240 69 405 121 800 90 678 136 926 221 1190
199 622 634 1091 1264 1363 65 28 237 83 295 95 14 3 66 14 115 25 50 12 115
23 145 27 30 3 62 8 70 10 8 2 42 7 75 10 74 7 139 14 185 20 19 2 58 7 85 11
28 3 59 8 70 10 11 3 41 9 66 14 133 26 233 81 326 178 144 150 214 407 214
783 0 706 -259 1450 -770 2214 -59 88 -203 295 -320 460 -341 480 -446 646
-565 895 -281 585 -251 1145 88 1652 326 490 874 829 1566 968 255 51 380 63
670 64 190 0 308 -5 415 -18 676 -78 1293 -271 2125 -664 254 -119 640 -314
815 -411 33 -19 83 -46 110 -61 112 -61 292 -165 461 -266 343 -205 493 -283
664 -344 285 -102 480 -132 840 -129 653 5 1346 163 2060 471 1630 703 3503
2320 4480 3868 420 665 674 1316 762 1950 39 282 35 1035 -8 1490 -62 668
-163 1138 -426 1990 -33 107 -66 216 -74 243 -32 106 -43 146 -68 227 -124
404 -179 791 -147 1035 15 110 61 248 112 337 50 86 171 213 256 271 344 230
878 296 1613 201 453 -59 1081 -195 1880 -409 74 -20 186 -49 248 -66 138 -36
306 -80 477 -125 930 -244 1710 -408 2380 -499 37 -5 396 -41 482 -49 329 -28
867 -31 1173 -6 730 60 1384 220 1897 465 832 397 1419 1124 1691 2095 21 76
67 275 77 340 3 19 12 71 20 115 16 89 42 290 51 399 3 39 7 82 9 95 2 13 7
101 10 195 4 94 8 182 10 195 2 13 5 274 6 580 4 831 14 1079 59 1457 43 357
110 663 221 1011 41 130 161 439 221 573 52 112 211 433 252 505 25 44 49 87
53 95 7 15 154 264 209 353 66 110 120 191 393 600 374 560 577 869 652 992
405 664 627 1141 898 1925 223 646 268 771 339 955 102 267 243 571 349 759
75 132 265 417 349 523 229 290 499 554 819 802 157 122 452 318 640 426 287
166 832 419 895 416 161 -7 1226 -12 1528 -6 l392 7 0 168 0 167 -698 -5
c-482 -3 -763 -1 -908 7 -115 7 -216 14 -224 16 -8 2 -76 -18 -150 -44z"/>
<path d="M49590 44869 c-205 -7 -454 -22 -722 -45 l-78 -7 -66 -121 c-202
-371 -563 -713 -1038 -983 -108 -62 -505 -262 -661 -333 -90 -41 -655 -322
-715 -356 -603 -335 -983 -661 -1272 -1091 -219 -326 -365 -731 -422 -1174
-49 -375 -44 -863 14 -1424 5 -49 12 -115 15 -145 8 -83 55 -510 60 -550 26
-198 89 -850 100 -1040 4 -58 9 -123 11 -145 9 -82 12 -725 4 -860 -26 -418
-71 -717 -161 -1064 -225 -872 -682 -1647 -1375 -2333 -519 -512 -1099 -914
-1859 -1288 -1114 -547 -2120 -792 -2945 -716 -96 9 -191 19 -210 22 -129 20
-288 49 -360 66 -47 11 -95 22 -106 24 -52 10 -277 71 -499 134 -1139 326
-1675 445 -2260 501 -190 18 -571 16 -730 -5 -742 -96 -1221 -462 -1563 -1193
-117 -250 -192 -462 -362 -1018 -101 -332 -138 -444 -200 -615 -364 -992
-1098 -2138 -2049 -3200 -1030 -1150 -2632 -2486 -4051 -3377 -666 -419 -1234
-713 -2180 -1130 -521 -229 -794 -372 -1008 -524 -128 -92 -334 -304 -401
-413 -259 -419 -233 -964 74 -1576 112 -223 227 -399 480 -735 207 -275 237
-337 205 -416 -11 -26 -21 -32 -70 -47 -8 -3 -61 -6 -117 -7 -231 -6 -544 84
-905 260 -247 120 -561 334 -779 531 -24 21 -72 66 -108 98 -97 87 -368 361
-510 516 -133 144 -155 169 -271 300 -41 47 -77 87 -80 90 -3 3 -36 41 -75 85
-653 747 -951 1022 -1278 1182 -336 164 -586 50 -646 -295 -6 -34 -14 -74 -17
-89 -10 -50 -13 -455 -3 -578 5 -66 20 -226 34 -355 24 -221 39 -332 101 -787
337 -2476 460 -3638 480 -4548 17 -747 -69 -1235 -277 -1572 -63 -100 -214
-259 -305 -320 -137 -92 -292 -152 -440 -171 -76 -9 -294 -9 -359 1 -176 26
-342 74 -491 142 -30 14 -57 25 -60 25 -2 0 -48 21 -102 46 -286 137 -482 215
-577 230 -288 48 -506 -68 -742 -396 -428 -596 -965 -1976 -1400 -3600 -14
-52 -36 -133 -49 -180 -12 -47 -48 -182 -79 -300 -31 -118 -67 -253 -80 -300
-13 -47 -38 -139 -55 -205 -18 -66 -48 -174 -67 -240 -19 -66 -41 -140 -48
-165 -71 -257 -208 -668 -293 -880 -186 -463 -396 -840 -636 -1139 -358 -444
-812 -784 -1391 -1040 -66 -29 -133 -59 -150 -66 -174 -77 -643 -236 -930
-315 -82 -23 -170 -48 -195 -55 -25 -8 -63 -18 -85 -24 -22 -5 -83 -20 -135
-34 -52 -14 -266 -69 -475 -122 -465 -118 -631 -161 -895 -232 -113 -30 -230
-61 -260 -69 -30 -8 -77 -21 -105 -29 -27 -9 -171 -51 -320 -94 -1607 -471
-2876 -1074 -3771 -1792 l-120 -97 -27 -128 c-29 -138 -77 -393 -77 -409 0 -5
44 33 97 86 326 319 662 577 1093 841 867 531 1949 958 3412 1347 43 12 113
30 155 42 43 11 339 86 658 165 728 181 1101 279 1375 360 611 180 1098 379
1487 607 190 112 427 279 568 401 160 138 388 381 491 521 16 22 31 42 34 45
3 3 14 19 26 35 11 17 36 53 55 80 78 112 197 320 275 480 157 324 241 549
394 1065 57 192 140 522 300 1200 136 571 152 638 230 935 175 663 338 1167
528 1625 299 721 571 1117 861 1253 144 68 331 81 516 36 22 -5 51 -12 64 -15
43 -9 235 -64 277 -80 23 -8 51 -17 64 -19 12 -2 82 -22 157 -45 74 -22 151
-43 171 -46 20 -3 71 -12 112 -21 221 -43 563 -38 745 12 33 9 74 20 90 24
191 48 447 203 602 365 246 256 372 548 437 1006 45 320 28 963 -44 1640 -6
52 -12 115 -15 140 -21 207 -54 480 -119 1005 -102 806 -269 2269 -311 2705
-67 713 -72 1172 -15 1396 27 103 72 193 124 247 59 62 103 81 191 80 255 -2
571 -248 1185 -923 502 -552 869 -910 1185 -1156 103 -81 275 -199 385 -265
229 -137 592 -296 860 -376 47 -13 114 -34 150 -44 177 -53 533 -116 791 -140
113 -10 506 -8 564 4 11 2 38 7 60 11 22 4 65 17 96 29 100 37 110 96 31 175
-25 24 -170 127 -322 227 -442 291 -644 450 -881 691 -315 322 -523 648 -643
1006 -73 219 -103 477 -77 672 50 376 286 686 733 966 124 77 455 245 708 360
1089 491 1724 835 2545 1375 914 602 2036 1489 2880 2277 881 823 1607 1668
2200 2563 454 684 714 1184 984 1888 170 444 288 721 405 955 250 498 525 796
912 990 190 95 369 147 649 187 113 17 466 17 640 1 99 -9 187 -19 195 -21 8
-2 38 -7 65 -10 40 -5 289 -50 330 -59 6 -2 28 -6 50 -11 233 -45 607 -153
1080 -312 508 -171 824 -257 1056 -288 25 -3 58 -8 73 -11 167 -30 633 -27
881 5 559 74 1155 239 1805 501 901 363 1753 850 2365 1354 882 725 1498 1597
1821 2576 142 429 221 867 253 1405 18 287 2 870 -33 1240 -3 28 -8 79 -11
115 -6 69 -82 807 -90 875 -11 93 -45 489 -51 595 -3 63 -8 126 -10 140 -9 55
-4 605 6 726 63 718 306 1258 766 1704 158 152 217 201 413 340 96 69 188 129
269 175 294 170 630 340 1007 510 521 235 911 460 1170 675 203 168 314 292
419 468 21 34 45 66 54 71 34 17 587 51 835 51 l137 0 0 255 0 255 -87 -2
c-49 0 -194 -5 -323 -9z"/>
<path d="M49725 43720 c-115 -4 -250 -10 -300 -15 l-90 -7 -69 -89 c-155 -201
-248 -282 -518 -453 -216 -137 -625 -346 -993 -508 -49 -22 -112 -50 -140 -63
-27 -13 -106 -49 -175 -81 -123 -56 -438 -213 -556 -277 -312 -171 -608 -387
-815 -595 -90 -91 -131 -138 -224 -253 -33 -41 -117 -172 -163 -254 -174 -309
-270 -663 -303 -1110 -16 -226 -3 -795 25 -1050 3 -22 8 -76 11 -120 3 -44 8
-98 10 -120 17 -161 62 -677 76 -855 16 -225 23 -865 10 -1075 -67 -1119 -387
-2049 -1010 -2935 -347 -495 -757 -928 -1271 -1343 -948 -767 -2409 -1504
-3825 -1928 -414 -124 -902 -233 -1185 -264 -30 -4 -68 -8 -85 -10 -167 -23
-597 -26 -730 -7 -92 14 -130 20 -165 27 -14 3 -36 7 -50 10 -118 21 -466 135
-567 184 -23 12 -47 21 -53 21 -6 0 -40 14 -76 31 -72 33 -423 175 -532 214
-231 83 -541 159 -777 189 -111 15 -529 16 -605 2 -499 -92 -822 -283 -1134
-671 -224 -279 -380 -543 -729 -1240 -191 -380 -327 -626 -507 -915 -895
-1438 -2047 -2716 -3591 -3986 -1201 -989 -2333 -1770 -3374 -2329 -197 -105
-757 -385 -1035 -515 -696 -327 -979 -497 -1202 -722 -276 -278 -385 -622
-319 -1010 129 -749 815 -1470 1786 -1873 283 -118 510 -189 1135 -354 310
-82 425 -118 512 -162 105 -52 118 -65 118 -109 0 -37 -3 -40 -62 -74 -155
-86 -707 -183 -1298 -227 -212 -16 -780 -16 -965 -1 -554 47 -1055 145 -1495
292 -477 159 -869 378 -1305 729 -176 142 -273 227 -575 512 -278 261 -344
321 -442 404 -558 468 -802 399 -879 -245 -7 -58 -13 -213 -13 -345 -1 -227
11 -643 19 -668 2 -7 6 -68 10 -137 3 -69 8 -138 10 -155 2 -16 7 -64 10 -105
8 -107 52 -544 75 -750 56 -492 113 -899 221 -1555 122 -746 159 -985 184
-1185 2 -19 9 -71 14 -115 44 -343 56 -800 27 -1030 -52 -410 -179 -723 -407
-1000 -82 -101 -249 -257 -335 -315 -170 -114 -200 -133 -305 -186 -107 -53
-366 -150 -441 -164 -27 -6 -54 -12 -59 -15 -8 -6 -29 -10 -173 -36 -102 -18
-218 -24 -451 -24 -208 0 -296 4 -422 20 -16 2 -55 6 -88 10 -33 3 -73 8 -90
10 -16 2 -55 6 -85 9 -30 3 -98 11 -150 16 -88 10 -325 14 -360 7 -8 -2 -37
-7 -65 -11 -282 -43 -535 -275 -749 -686 -187 -359 -379 -923 -506 -1490 -12
-52 -28 -124 -36 -160 -40 -175 -101 -471 -214 -1050 -133 -680 -246 -1169
-330 -1419 -57 -173 -109 -317 -124 -346 -9 -16 -16 -34 -16 -39 0 -10 -51
-127 -116 -264 -84 -178 -243 -442 -348 -576 -25 -33 -46 -62 -46 -65 0 -3
-12 -19 -28 -36 -15 -16 -57 -66 -94 -110 -90 -109 -320 -332 -453 -441 -360
-292 -811 -549 -1343 -765 -151 -61 -550 -201 -727 -254 -49 -15 -101 -31
-115 -35 -148 -52 -674 -187 -1660 -429 -655 -160 -738 -182 -1155 -298 -1588
-442 -2703 -971 -3525 -1673 -134 -115 -364 -344 -483 -484 -56 -65 -106 -124
-110 -132 -7 -12 26 -14 206 -14 l213 0 205 203 c408 405 860 722 1449 1017
249 125 381 184 705 317 33 13 143 55 245 92 655 241 1288 421 2535 721 1154
278 1714 436 2262 641 1225 456 2027 1060 2523 1900 119 200 261 516 337 749
38 118 137 466 148 520 3 19 17 82 30 140 50 224 77 372 139 755 25 154 50
305 56 335 5 30 24 138 41 240 16 102 34 208 39 235 56 314 98 518 156 755
217 881 478 1337 856 1496 34 14 69 28 77 30 9 2 41 10 71 18 105 29 248 37
745 41 275 2 518 6 540 9 22 3 81 11 130 17 566 66 1102 282 1510 607 111 89
315 298 392 402 360 490 464 1001 362 1787 -36 278 -94 581 -254 1328 -158
738 -252 1321 -309 1910 -4 33 -8 80 -11 105 -53 524 -64 1140 -25 1420 53
376 164 529 369 507 162 -18 316 -114 813 -505 457 -359 695 -518 1030 -684
486 -241 1138 -406 1903 -483 555 -55 1109 -45 1979 35 1152 106 1580 170
1766 263 44 21 69 41 78 60 23 47 -14 89 -123 142 -217 105 -604 204 -1295
330 -573 104 -806 154 -1075 231 -387 111 -754 268 -1045 449 -348 217 -690
548 -879 852 -112 181 -197 389 -238 583 -21 103 -24 344 -5 435 72 334 278
598 662 848 192 124 281 171 1090 571 784 388 1237 643 1895 1069 903 584
2078 1480 2935 2236 580 512 1175 1106 1645 1641 546 622 1078 1333 1517 2025
127 201 162 259 323 540 356 622 616 976 889 1211 318 275 628 395 1021 396
135 0 234 -6 275 -17 8 -2 30 -7 48 -10 84 -14 101 -17 157 -31 65 -17 222
-68 325 -107 67 -25 331 -147 340 -157 8 -9 373 -182 392 -185 9 -2 26 -9 37
-15 29 -15 190 -67 280 -90 434 -110 1043 -55 1901 170 1315 346 2748 952
3865 1633 789 482 1415 1001 1926 1597 766 894 1231 1898 1388 2995 44 308 60
538 65 930 6 446 -1 577 -80 1645 -17 227 -23 749 -11 905 49 622 243 1082
621 1475 156 161 310 287 516 422 124 81 234 148 243 148 3 0 34 17 68 38 73
44 490 249 594 293 11 4 56 25 100 44 44 20 197 89 340 152 477 211 892 432
1060 564 61 48 185 172 265 266 l45 53 223 6 222 7 0 224 c0 172 -3 223 -12
223 -7 0 -22 2 -33 4 -11 2 -114 0 -230 -4z"/>
<path d="M27242 7731 c-8 -4 -12 -21 -10 -36 l3 -28 17 36 c18 37 15 44 -10
28z"/>
</g>
</svg>
