<svg xmlns="http://www.w3.org/2000/svg" version="1.0" preserveAspectRatio="xMidYMid meet" viewBox="18.39 95 345.55 188.33">

<g transform="translate(0.000000,379.000000) scale(0.100000,-0.100000)" fill="#f0f0f0" stroke="none">
<path fill="rgb(46, 150, 213)" d="M2560 2820 c-17 -17 -20 -33 -20 -102 l0 -82 -58 57 c-75 74 -99 76 -165 9 -65 -66 -64 -89 10 -164 l57 -58 -82 0 c-109 0 -122 -12 -122 -110 0 -98 13 -110 122 -110 l82 0 -57 -58 c-74 -75 -76 -99 -9 -165 66 -65 89 -64 164 10 l58 57 0 -82 c0 -109 12 -122 110 -122 98 0 110 13 110 122 l0 82 58 -57 c75 -74 99 -76 165 -9 65 66 64 89 -10 164 l-57 58 82 0 c109 0 122 12 122 110 0 98 -13 110 -122 110 l-82 0 57 58 c74 75 76 99 9 165 -66 65 -89 64 -164 -10 l-58 -57 0 82 c0 109 -12 122 -110 122 -57 0 -74 -4 -90 -20z"/>
<path fill="#292929" d="M220 2349 l0 -422 198 6 c267 7 338 30 441 143 76 83 95 142 96 294 0 116 -2 129 -28 185 -50 108 -130 170 -259 200 -44 10 -121 15 -255 15 l-193 0 0 -421z m415 237 c28 -14 61 -39 73 -56 75 -101 67 -280 -15 -365 -54 -55 -88 -68 -190 -73 l-93 -4 0 267 0 268 87 -6 c63 -5 100 -13 138 -31z"/>
<path fill="#292929" d="M1297 2763 c-11 -18 -297 -807 -297 -819 0 -11 22 -14 98 -14 l98 0 30 93 30 92 150 3 150 2 30 -92 30 -93 103 -3 c84 -2 102 0 99 11 -2 8 -68 197 -148 421 l-145 406 -112 0 c-61 0 -114 -3 -116 -7z m178 -382 c19 -58 35 -109 35 -113 0 -4 -47 -8 -105 -8 -58 0 -105 3 -105 6 0 3 23 76 50 162 28 86 50 165 51 176 0 12 9 -10 19 -49 11 -38 35 -117 55 -174z"/>
<path fill="#292929" d="M546 1809 c-137 -21 -253 -104 -311 -223 -102 -209 -47 -460 126 -571 91 -59 288 -76 414 -38 l60 19 3 87 c1 48 1 87 -1 87 -2 0 -23 -10 -48 -22 -58 -29 -226 -33 -274 -6 -86 47 -128 126 -128 238 0 173 94 270 265 270 54 0 93 -6 128 -20 28 -11 53 -20 55 -20 3 0 5 40 5 89 l0 90 -52 10 c-84 16 -178 20 -242 10z"/>
<path fill="#292929" d="M1252 1809 c-161 -27 -287 -151 -323 -320 -17 -77 -7 -222 20 -292 32 -81 113 -166 192 -202 113 -50 266 -51 372 0 252 119 308 519 100 716 -62 59 -114 84 -203 98 -73 12 -84 12 -158 0z m167 -173 c83 -43 127 -147 118 -282 -6 -96 -30 -150 -90 -198 -36 -29 -45 -31 -117 -31 -72 0 -81 2 -117 31 -63 51 -87 104 -91 209 -6 137 33 223 123 269 38 20 137 21 174 2z"/>
<path fill="#292929" d="M1880 1385 l0 -415 86 0 85 0 -3 336 c-3 291 -1 330 10 288 7 -27 59 -179 114 -337 l102 -288 79 3 80 3 95 275 c52 151 100 295 107 320 12 39 13 4 14 -277 l1 -323 95 0 95 0 0 415 0 415 -137 0 -138 0 -92 -268 c-51 -147 -96 -283 -101 -302 -6 -21 -11 -29 -14 -20 -3 8 -21 65 -41 125 -20 61 -64 190 -97 288 l-62 177 -139 0 -139 0 0 -415z"/>
<path fill="#292929" d="M3030 1385 l0 -415 95 0 95 0 0 144 0 144 103 4 c114 5 167 22 231 78 50 45 78 102 84 177 7 90 -12 148 -67 203 -68 68 -121 80 -354 80 l-187 0 0 -415z m356 252 c36 -19 54 -54 54 -108 0 -88 -51 -129 -160 -129 l-60 0 0 131 0 132 68 -5 c37 -3 81 -12 98 -21z"/>
</g>
</svg>