<?xml version="1.0" standalone="no"?>
<!DOCTYPE svg PUBLIC "-//W3C//DTD SVG 20010904//EN"
 "http://www.w3.org/TR/2001/REC-SVG-20010904/DTD/svg10.dtd">
<svg version="1.0" xmlns="http://www.w3.org/2000/svg"
 width="1462.000000pt" height="1462.000000pt" viewBox="0 0 1462.000000 1462.000000"
 preserveAspectRatio="xMidYMid meet">

<g transform="translate(0.000000,1462.000000) scale(0.100000,-0.100000)"
fill="#f0f0f0" stroke="none">
<path d="M6795 14519 c-1761 -131 -3374 -866 -4606 -2100 -1613 -1615 -2359
-3857 -2043 -6134 213 -1530 940 -2983 2044 -4085 1115 -1112 2551 -1829 4096
-2044 384 -53 506 -61 1004 -61 546 0 775 17 1215 91 1753 295 3339 1231 4448
2627 863 1085 1390 2373 1532 3747 49 475 48 1027 -1 1505 -194 1879 -1115
3597 -2584 4817 -371 308 -843 620 -1285 849 -804 416 -1725 689 -2600 769
-66 6 -136 13 -155 16 -64 10 -943 12 -1065 3z m2776 -3442 c390 -79 696 -237
963 -496 273 -266 451 -597 528 -983 l23 -113 3 -2105 c3 -2174 3 -2216 -37
-2405 -49 -229 -166 -498 -298 -685 -88 -123 -311 -346 -433 -432 -188 -133
-451 -249 -671 -296 -198 -43 -204 -43 -2419 -39 -2327 4 -2141 -1 -2375 61
-506 135 -955 513 -1176 992 -57 123 -106 272 -137 413 l-27 126 0 2195 0
2195 27 126 c146 676 621 1196 1270 1393 97 29 153 41 338 70 14 2 995 3 2180
2 2005 -1 2161 -3 2241 -19z"/>
<path d="M5239 10424 c-538 -97 -954 -516 -1056 -1064 -17 -89 -18 -220 -18
-2060 l0 -1965 23 -102 c12 -56 36 -141 53 -190 155 -440 554 -774 1012 -848
141 -23 3961 -22 4093 0 132 23 240 59 363 120 362 182 611 506 698 908 17 77
18 207 18 2087 0 1904 -1 2009 -18 2090 -26 121 -51 190 -112 316 -179 369
-524 630 -940 709 -70 13 -326 15 -2060 14 -1632 -1 -1993 -3 -2056 -15z
m4289 -655 c175 -60 289 -256 252 -436 -27 -128 -112 -237 -227 -291 -81 -36
-203 -42 -286 -13 -243 85 -342 373 -202 587 101 154 284 215 463 153z m-1900
-523 c822 -155 1426 -742 1599 -1553 26 -120 27 -144 27 -383 1 -241 -1 -262
-27 -383 -162 -757 -710 -1332 -1446 -1518 -665 -169 -1371 25 -1859 509 -608
605 -754 1517 -366 2282 290 571 842 964 1478 1055 132 18 476 14 594 -9z"/>
<path d="M7075 8596 c-257 -49 -515 -184 -696 -365 -176 -176 -302 -411 -356
-664 -25 -114 -25 -399 -1 -513 101 -464 430 -835 873 -982 246 -82 549 -84
796 -6 254 80 494 249 655 463 71 95 171 288 203 394 79 261 73 573 -15 819
-149 414 -487 721 -916 834 -90 23 -126 27 -288 30 -126 2 -207 -1 -255 -10z"/>
</g>
</svg>
