<?xml version="1.0" standalone="no"?>
<!DOCTYPE svg PUBLIC "-//W3C//DTD SVG 20010904//EN"
 "http://www.w3.org/TR/2001/REC-SVG-20010904/DTD/svg10.dtd">
<svg version="1.0" xmlns="http://www.w3.org/2000/svg"
 width="1462.000000pt" height="1462.000000pt" viewBox="0 0 1462.000000 1462.000000"
 preserveAspectRatio="xMidYMid meet">

<g transform="translate(0.000000,1462.000000) scale(0.100000,-0.100000)"
fill="#f0f0f0" stroke="none">
<path d="M6870 14474 c-14 -1 -95 -8 -180 -14 -1196 -86 -2427 -518 -3445
-1208 -1746 -1182 -2892 -3058 -3134 -5127 -61 -521 -67 -1091 -15 -1595 134
-1317 618 -2556 1414 -3614 1183 -1573 2978 -2606 4917 -2831 505 -58 1099
-62 1618 -9 1270 127 2515 614 3555 1389 968 721 1748 1683 2250 2775 804
1748 875 3774 195 5575 -170 450 -402 912 -666 1329 -419 658 -968 1268 -1594
1769 -755 604 -1651 1060 -2589 1317 -441 121 -964 209 -1430 239 -138 10
-826 13 -896 5z m-470 -3855 c168 -234 559 -781 869 -1215 310 -434 567 -792
571 -797 3 -4 521 544 1151 1218 l1144 1224 559 1 559 0 -59 -62 c-33 -35
-673 -720 -1423 -1523 -750 -803 -1381 -1478 -1403 -1501 l-39 -40 537 -750
c786 -1097 972 -1357 1664 -2324 344 -481 706 -986 803 -1122 97 -135 177
-249 177 -252 0 -3 -683 -6 -1517 -6 l-1518 1 -415 581 c-381 534 -665 930
-1240 1732 l-214 300 -50 -56 c-28 -31 -577 -619 -1221 -1307 l-1170 -1251
-558 0 -558 0 503 538 c480 512 2494 2667 2546 2724 l25 27 -138 193 c-77 106
-432 603 -790 1103 -1047 1463 -1902 2658 -2028 2833 l-117 162 1523 -2 1522
-3 305 -426z"/>
<path d="M4645 10214 c10 -15 573 -804 1253 -1753 680 -949 1365 -1906 1522
-2126 158 -220 504 -704 770 -1075 266 -371 532 -744 592 -827 l109 -153 525
0 c417 0 524 3 518 13 -4 6 -30 44 -58 82 -27 39 -190 266 -361 505 -171 239
-552 770 -845 1180 -293 410 -577 806 -630 880 -53 74 -380 531 -726 1015
-347 484 -857 1196 -1133 1583 l-503 702 -525 0 -525 0 17 -26z"/>
</g>
</svg>
