<?xml version="1.0" standalone="no"?>
<!DOCTYPE svg PUBLIC "-//W3C//DTD SVG 20010904//EN"
 "http://www.w3.org/TR/2001/REC-SVG-20010904/DTD/svg10.dtd">
<svg version="1.0" xmlns="http://www.w3.org/2000/svg"
 width="300.000000pt" height="300.000000pt" viewBox="0 0 300.000000 300.000000"
 preserveAspectRatio="xMidYMid meet">

<g transform="translate(0.000000,300.000000) scale(0.100000,-0.100000)"
fill="#292929" stroke="none">
<path d="M2260 2736 c-104 -30 -125 -49 -683 -605 -302 -300 -555 -558 -563
-573 -11 -21 -14 -76 -14 -243 0 -234 4 -253 56 -294 25 -20 39 -21 246 -21
164 0 227 3 251 14 18 8 263 246 579 563 510 512 549 553 579 617 94 200 5
437 -197 528 -60 26 -187 34 -254 14z m176 -261 c33 -21 64 -73 64 -108 0 -40
-31 -95 -82 -144 l-44 -43 -97 98 -97 98 47 46 c27 26 62 54 78 63 35 19 94
15 131 -10z m-336 -380 l95 -95 -375 -375 -375 -375 -97 0 -98 0 0 97 0 98
372 372 c205 205 375 373 378 373 3 0 48 -43 100 -95z"/>
<path d="M648 2235 c-107 -29 -208 -119 -250 -223 -23 -57 -23 -59 -26 -644
-2 -345 1 -616 7 -657 12 -93 47 -165 106 -224 59 -60 124 -93 206 -107 81
-13 1139 -13 1228 0 133 19 245 101 299 218 23 49 27 73 30 175 5 131 -3 163
-50 202 -50 43 -130 28 -177 -31 -18 -23 -21 -41 -21 -116 0 -100 -14 -144
-55 -176 l-28 -22 -601 0 c-565 0 -603 1 -629 18 -59 40 -56 4 -57 660 0 602
0 604 21 634 31 43 75 58 169 58 89 0 125 13 159 56 38 48 22 128 -35 173 -24
19 -39 21 -138 20 -61 0 -132 -7 -158 -14z"/>
</g>
</svg>
