<?xml version="1.0" standalone="no"?>
<!DOCTYPE svg PUBLIC "-//W3C//DTD SVG 20010904//EN"
 "http://www.w3.org/TR/2001/REC-SVG-20010904/DTD/svg10.dtd">
<svg version="1.0" xmlns="http://www.w3.org/2000/svg"
 width="1462.000000pt" height="1462.000000pt" viewBox="0 0 1462.000000 1462.000000"
 preserveAspectRatio="xMidYMid meet">

<g transform="translate(0.000000,1462.000000) scale(0.100000,-0.100000)"
fill="#f0f0f0" stroke="none">
<path d="M6805 14469 c-1166 -82 -2310 -450 -3295 -1062 -1831 -1137 -3058
-3016 -3354 -5134 -54 -386 -61 -494 -61 -1008 0 -525 8 -645 65 -1048 197
-1371 786 -2652 1709 -3712 226 -260 594 -616 866 -838 992 -811 2185 -1346
3440 -1543 419 -66 613 -79 1145 -79 474 0 585 6 930 51 646 83 1292 259 1910
522 311 133 741 361 1045 555 727 465 1389 1083 1912 1787 736 989 1215 2184
1362 3400 41 334 46 437 46 895 0 473 -6 592 -51 942 -179 1412 -796 2771
-1748 3847 -216 245 -578 594 -829 799 -1177 965 -2582 1521 -4107 1627 -170
12 -812 11 -985 -1z m2486 -2460 c59 -13 124 -65 146 -116 10 -26 13 -161 13
-688 0 -625 -1 -658 -19 -693 -24 -47 -56 -77 -103 -97 -32 -13 -114 -15 -590
-15 -421 -1 -571 -4 -628 -14 -323 -59 -578 -308 -644 -629 -14 -65 -16 -181
-16 -821 l0 -745 873 -3 872 -3 56 -23 c66 -27 144 -99 171 -159 41 -92 40
-104 -28 -652 -36 -284 -69 -532 -74 -553 -14 -52 -68 -127 -118 -165 -85 -65
-62 -63 -949 -63 l-803 0 0 -2019 0 -2020 -47 -8 c-27 -4 -232 -8 -458 -8
-473 0 -580 9 -1032 86 l-73 12 0 1978 0 1979 -622 0 c-585 0 -625 2 -663 19
-22 10 -52 31 -67 47 -58 62 -58 59 -58 738 0 385 4 635 10 657 16 56 51 101
100 129 l45 25 628 3 627 3 0 974 c0 1057 1 1090 57 1315 207 846 946 1471
1809 1529 192 13 1524 13 1585 0z"/>
</g>
</svg>
