<?xml version="1.0" standalone="no"?>
<!DOCTYPE svg PUBLIC "-//W3C//DTD SVG 20010904//EN"
 "http://www.w3.org/TR/2001/REC-SVG-20010904/DTD/svg10.dtd">
<svg version="1.0" xmlns="http://www.w3.org/2000/svg"
 width="512.000000pt" height="512.000000pt" viewBox="0 0 512.000000 512.000000"
 preserveAspectRatio="xMidYMid meet">

<g transform="translate(0.000000,512.000000) scale(0.100000,-0.100000)"
fill="#f0f0f0" stroke="none">
<path d="M2430 2685 l-2425 -2425 128 -127 127 -128 182 182 183 183 1925 2
1925 3 66 32 c79 39 140 102 177 181 l27 57 3 1925 2 1925 182 182 183 183
-125 125 c-69 69 -127 125 -130 125 -3 0 -1096 -1091 -2430 -2425z m1960 280
c0 -635 -3 -1155 -7 -1155 -4 0 -122 114 -262 253 -177 174 -270 259 -302 275
-69 33 -151 46 -220 33 -102 -18 -152 -52 -325 -222 -88 -88 -163 -159 -166
-159 -10 0 -428 417 -428 426 0 11 1692 1704 1702 1704 5 0 8 -520 8 -1155z
m-1730 -1049 c281 -281 297 -291 450 -291 145 0 174 17 379 220 l167 164 367
-367 367 -367 0 -273 0 -272 -1695 0 c-932 0 -1695 3 -1695 7 0 12 1403 1413
1415 1413 5 0 115 -106 245 -234z"/>
<path d="M633 4735 c-102 -31 -185 -104 -232 -204 l-26 -56 -3 -1502 -2 -1503
180 0 180 0 0 268 0 267 460 460 460 460 125 -125 125 -125 127 128 128 127
-144 144 c-80 80 -165 156 -190 169 -97 52 -205 57 -319 15 -52 -19 -86 -50
-407 -369 -193 -192 -354 -349 -358 -349 -4 0 -6 415 -5 923 l3 922 1463 3
1462 2 0 180 0 180 -1492 -1 c-1206 0 -1501 -3 -1535 -14z"/>
</g>
</svg>
