<?xml version="1.0" standalone="no"?>
<!DOCTYPE svg PUBLIC "-//W3C//DTD SVG 20010904//EN"
 "http://www.w3.org/TR/2001/REC-SVG-20010904/DTD/svg10.dtd">
<svg version="1.0" xmlns="http://www.w3.org/2000/svg"
 width="512.000000pt" height="512.000000pt" viewBox="0 0 512.000000 512.000000"
 preserveAspectRatio="xMidYMid meet">

<g transform="translate(0.000000,512.000000) scale(0.100000,-0.100000)"
fill="#292929" stroke="none">
<path d="M2285 4675 c-811 -106 -1495 -672 -1749 -1446 -75 -229 -106 -422
-106 -669 0 -247 31 -440 106 -669 105 -319 274 -592 518 -837 183 -182 348
-300 571 -410 588 -287 1288 -287 1870 0 967 478 1426 1577 1084 2601 -258
775 -967 1345 -1781 1434 -128 14 -388 12 -513 -4z m368 -1071 c42 -21 75 -52
95 -89 15 -26 18 -80 22 -385 l5 -355 355 -5 c383 -5 386 -6 436 -62 90 -99
75 -246 -34 -323 l-44 -30 -356 -5 -357 -5 -5 -357 -5 -356 -30 -44 c-77 -108
-225 -124 -323 -34 -56 50 -57 53 -62 436 l-5 355 -355 5 c-305 4 -359 7 -385
22 -145 80 -145 296 0 376 26 15 80 18 385 22 l355 5 5 355 c4 305 7 359 22
385 54 99 182 139 281 89z"/>
</g>
</svg>
