<?xml version="1.0" standalone="no"?>
<!DOCTYPE svg PUBLIC "-//W3C//DTD SVG 20010904//EN"
 "http://www.w3.org/TR/2001/REC-SVG-20010904/DTD/svg10.dtd">
<svg version="1.0" xmlns="http://www.w3.org/2000/svg"
 width="512.000000pt" height="512.000000pt" viewBox="0 0 512.000000 512.000000"
 preserveAspectRatio="xMidYMid meet">

<g transform="translate(0.000000,512.000000) scale(0.100000,-0.100000)"
fill="#292929" stroke="none">
<path d="M83 4729 c-103 -51 -109 -199 -10 -259 30 -18 52 -20 299 -20 147 0
269 -4 272 -8 3 -5 169 -561 371 -1238 201 -676 368 -1236 370 -1244 4 -12
-10 -18 -66 -27 -170 -26 -349 -165 -425 -328 -60 -127 -69 -310 -23 -444 27
-80 106 -198 167 -251 58 -50 158 -103 237 -126 35 -10 112 -20 184 -23 l123
-6 16 -40 c89 -229 339 -373 582 -336 184 29 328 136 408 303 l37 78 401 0
401 0 27 -63 c93 -219 334 -353 574 -318 184 26 357 164 424 336 l16 40 125 5
c107 4 130 8 154 26 91 68 87 202 -8 258 -25 15 -59 20 -151 24 l-118 5 -36
76 c-27 56 -56 95 -108 147 -109 109 -226 156 -386 155 -180 0 -348 -94 -447
-248 -19 -30 -40 -71 -47 -91 l-13 -37 -404 -2 -404 -3 -37 78 c-90 186 -277
303 -483 303 -159 -1 -270 -46 -381 -156 -53 -52 -81 -90 -109 -148 l-37 -79
-117 4 c-132 4 -169 16 -234 81 -57 57 -81 117 -81 202 0 114 54 203 157 257
l42 23 1536 5 1536 5 37 28 c20 16 44 43 52 60 8 18 150 487 315 1042 240 808
299 1018 295 1049 -6 47 -31 84 -77 111 -34 20 -57 20 -1984 25 l-1950 5 -102
345 c-57 190 -111 356 -121 369 -10 14 -31 34 -46 45 -26 20 -42 21 -369 24
-330 2 -343 2 -384 -19z m2147 -1429 l0 -350 -412 2 -412 3 -103 345 c-56 190
-103 346 -103 348 0 1 232 2 515 2 l515 0 0 -350z m1120 0 l0 -350 -410 0
-410 0 0 350 0 350 410 0 410 0 0 -350z m1410 343 c0 -4 -46 -162 -102 -350
l-102 -343 -448 0 -448 0 0 350 0 350 550 0 c303 0 550 -3 550 -7z m-2530
-1343 l0 -350 -263 0 -262 0 -99 333 c-54 182 -101 340 -104 350 -4 16 18 17
362 17 l366 0 0 -350z m1120 0 l0 -350 -410 0 -410 0 0 350 0 350 410 0 410 0
0 -350z m1110 339 c0 -6 -43 -156 -96 -333 -52 -176 -97 -329 -100 -338 -5
-17 -28 -18 -305 -18 l-299 0 0 350 0 350 400 0 c290 0 400 -3 400 -11z
m-2234 -1525 c204 -126 114 -436 -126 -436 -214 0 -315 259 -158 409 50 49 93
64 169 60 53 -2 76 -9 115 -33z m1812 20 c152 -63 196 -265 84 -381 -51 -53
-102 -75 -171 -75 -251 0 -333 334 -109 446 61 30 138 35 196 10z"/>
</g>
</svg>
